# xmcd
#
# Track frame offsets:
#	150
#	27412
#	45074
#	64049
#	80641
#	95978
#	120203
#	126503
#	144765
#	160027
#	173527
#	193177
#
# Disc length: 3005 seconds
# Revision: 0
# Processed by: cddbd v1.5.2PL0 Copyright (c) Steve Scherf et al.
# Submitted via: dBpowerAMP V12.0
#
DISCID=960bbb0c
DTITLE=Tim Hulsman - Dead Mans Garden
DYEAR=2014
DGENRE=Roots
TTITLE0=Goodnight Irene
TTITLE1=Sweet Surrender
TTITLE2=Dead Mans Garden
TTITLE3=Fire Storm
TTITLE4=You Are A Mountain
TTITLE5=Things In Cages
TTITLE6=Endless Deep Part II
TTITLE7=Song For Arlo
TTITLE8=Hold Your Head High
TTITLE9=Yours Finally
TTITLE10=Silly Old Me
TTITLE11=Road Song
EXTD=
EXTT0=
EXTT1=
EXTT2=
EXTT3=
EXTT4=
EXTT5=
EXTT6=
EXTT7=
EXTT8=
EXTT9=
EXTT10=
EXTT11=
PLAYORDER=
